<svg width="28" height="28" viewBox="0 0 28 28" fill="none" xmlns="http://www.w3.org/2000/svg">
<path d="M23.7551 15.33C23.5285 14.9234 23.4095 14.4656 23.4095 14C23.4095 13.5345 23.5285 13.0767 23.7551 12.67L24.3769 11.6854C24.488 11.5254 24.5605 11.342 24.5889 11.1493C24.6173 10.9567 24.6007 10.7601 24.5405 10.575C24.4803 10.3898 24.3781 10.2211 24.2418 10.082C24.1056 9.9429 23.939 9.83721 23.7551 9.7732L22.6736 9.34153C22.2524 9.14508 21.8883 8.8444 21.6157 8.46794C21.3432 8.09147 21.1712 7.65168 21.1161 7.1902L21.0403 6.02353C21.0359 5.82886 20.9867 5.63783 20.8964 5.46534C20.806 5.29285 20.677 5.14357 20.5195 5.02916C20.3619 4.91475 20.1801 4.8383 19.9881 4.80578C19.7961 4.77326 19.5992 4.78555 19.4128 4.8417L18.2846 5.12753C17.828 5.22039 17.3551 5.19461 16.9113 5.05265C16.4675 4.9107 16.0674 4.65731 15.7494 4.3167L15.0051 3.4207C14.8871 3.26592 14.7349 3.14048 14.5605 3.05413C14.3861 2.96778 14.1941 2.92285 13.9994 2.92285C13.8048 2.92285 13.6128 2.96778 13.4384 3.05413C13.2639 3.14048 13.1118 3.26592 12.9938 3.4207L12.2494 4.3167C11.9326 4.6574 11.5338 4.91132 11.0911 5.05427C10.6483 5.19723 10.1763 5.22445 9.7201 5.13336L8.59193 4.84753C8.40513 4.7903 8.2076 4.77717 8.01486 4.80917C7.82213 4.84118 7.63944 4.91744 7.48115 5.03197C7.32287 5.1465 7.1933 5.29618 7.10263 5.46924C7.01196 5.6423 6.96266 5.83403 6.9586 6.02936L6.88277 7.19603C6.82709 7.65812 6.65424 8.09831 6.38063 8.47482C6.10702 8.85134 5.74173 9.15169 5.31943 9.34736L4.23793 9.77903C4.05405 9.84304 3.88747 9.94873 3.75121 10.0878C3.61495 10.2269 3.51272 10.3956 3.45251 10.5808C3.39229 10.766 3.37573 10.9626 3.40411 11.1552C3.43249 11.3478 3.50504 11.5313 3.6161 11.6912L4.23793 12.6759C4.46454 13.0825 4.58348 13.5403 4.58348 14.0059C4.58348 14.4714 4.46454 14.9292 4.23793 15.3359L3.6161 16.3205C3.50504 16.4805 3.43249 16.6639 3.40411 16.8565C3.37573 17.0492 3.39229 17.2458 3.45251 17.4309C3.51272 17.6161 3.61495 17.7848 3.75121 17.9239C3.88747 18.063 4.05405 18.1687 4.23793 18.2327L5.31943 18.6644C5.74189 18.8601 6.10728 19.1607 6.3809 19.5374C6.65451 19.9141 6.82727 20.3546 6.88277 20.8169L6.9586 21.9777C6.96266 22.173 7.01196 22.3648 7.10263 22.5378C7.1933 22.7109 7.32287 22.8606 7.48115 22.9751C7.63944 23.0896 7.82213 23.1659 8.01486 23.1979C8.2076 23.2299 8.40513 23.2168 8.59193 23.1595L9.7201 22.8737C10.1763 22.7826 10.6483 22.8098 11.0911 22.9528C11.5338 23.0957 11.9326 23.3497 12.2494 23.6904L12.9938 24.5864C13.1118 24.7411 13.2639 24.8666 13.4384 24.9529C13.6128 25.0393 13.8048 25.0842 13.9994 25.0842C14.1941 25.0842 14.3861 25.0393 14.5605 24.9529C14.7349 24.8666 14.8871 24.7411 15.0051 24.5864L15.7494 23.6904C16.0663 23.3497 16.465 23.0957 16.9078 22.9528C17.3505 22.8098 17.8225 22.7826 18.2788 22.8737L19.4069 23.1595C19.5934 23.2157 19.7903 23.228 19.9823 23.1954C20.1742 23.1629 20.3561 23.0865 20.5137 22.9721C20.6712 22.8577 20.8002 22.7084 20.8905 22.5359C20.9809 22.3634 21.0301 22.1724 21.0344 21.9777L21.1103 20.8169C21.1658 20.3546 21.3385 19.9141 21.6121 19.5374C21.8858 19.1607 22.2511 18.8601 22.6736 18.6644L23.7551 18.2327C23.939 18.1687 24.1056 18.063 24.2418 17.9239C24.3781 17.7848 24.4803 17.6161 24.5405 17.4309C24.6007 17.2458 24.6173 17.0492 24.5889 16.8565C24.5605 16.6639 24.488 16.4805 24.3769 16.3205L23.7551 15.33Z" stroke="#1F5126" stroke-linecap="round" stroke-linejoin="round"/>
<path d="M9.91797 13.9999L12.6398 16.7217L18.0846 11.2781" stroke="#1F5126" stroke-linecap="round" stroke-linejoin="round"/>
</svg>
