<svg width="19" height="18" viewBox="0 0 19 18" fill="none" xmlns="http://www.w3.org/2000/svg">
<g clip-path="url(#clip0_487_52517)">
<path d="M18.9746 10.8313V17.4855H15.116V11.2791C15.116 9.71803 14.5594 8.65502 13.1615 8.65502C12.0943 8.65502 11.4624 9.37067 11.182 10.0654C11.0816 10.3123 11.0523 10.6597 11.0523 11.007V17.4897H7.19363C7.19363 17.4897 7.24385 6.97262 7.19363 5.88451H11.0523V7.52924C11.0439 7.54179 11.0355 7.55435 11.0272 7.56691H11.0523V7.52924C11.567 6.73826 12.4794 5.61248 14.5301 5.61248C17.0704 5.60829 18.9746 7.26976 18.9746 10.8313ZM3.15922 0.289062C1.83673 0.289062 0.974609 1.15537 0.974609 2.29371C0.974609 3.40694 1.81162 4.29836 3.109 4.29836H3.13411C4.4817 4.29836 5.31872 3.40694 5.31872 2.29371C5.28942 1.15537 4.47752 0.289062 3.15922 0.289062ZM1.20479 17.4897H5.06343V5.88032H1.20479V17.4897Z" fill="#1F5126"/>
</g>
<defs>
<clipPath id="clip0_487_52517">
<rect width="18" height="18" fill="white" transform="translate(0.974609)"/>
</clipPath>
</defs>
</svg>
